<svg width="32" height="32" viewBox="0 0 32 32" fill="none" xmlns="http://www.w3.org/2000/svg">
<path d="M14.7349 6.53024H6.38553C5.75285 6.53024 5.14608 6.78157 4.69871 7.22894C4.25133 7.67631 4 8.28308 4 8.91577V25.6145C4 26.2472 4.25133 26.8539 4.69871 27.3013C5.14608 27.7487 5.75285 28 6.38553 28H23.0842C23.7169 28 24.3237 27.7487 24.7711 27.3013C25.2184 26.8539 25.4698 26.2472 25.4698 25.6145V17.2651M23.6806 4.74109C24.1551 4.26658 24.7987 4 25.4698 4C26.1408 4 26.7844 4.26658 27.2589 4.74109C27.7334 5.2156 28 5.85918 28 6.53024C28 7.2013 27.7334 7.84487 27.2589 8.31938L15.9276 19.6506L11.1566 20.8434L12.3494 16.0724L23.6806 4.74109Z"
    stroke="white" stroke-width="2" stroke-linecap="round" stroke-linejoin="round" />
</svg>