<svg width="32" height="32" viewBox="0 0 32 32" xmlns="http://www.w3.org/2000/svg">
<path d="M10.0514 13.6V28M19.7337 8.656L18.5234 13.6H25.5794C25.9552 13.6 26.3258 13.6867 26.6619 13.8534C26.998 14.02 27.2904 14.2619 27.5159 14.56C27.7414 14.8581 27.8937 15.2041 27.961 15.5707C28.0282 15.9373 28.0084 16.3143 27.9032 16.672L25.0832 26.272C24.9366 26.7705 24.6308 27.2084 24.2118 27.52C23.7928 27.8316 23.2832 28 22.7595 28H6.42057C5.7786 28 5.16292 27.7471 4.70897 27.2971C4.25502 26.847 4 26.2365 4 25.6V16C4 15.3635 4.25502 14.753 4.70897 14.3029C5.16292 13.8529 5.7786 13.6 6.42057 13.6H9.76097C10.2113 13.5998 10.6526 13.475 11.0353 13.2397C11.4181 13.0044 11.727 12.6679 11.9274 12.268L16.1029 4C16.6736 4.00701 17.2354 4.1418 17.7462 4.39432C18.257 4.64683 18.7037 5.01053 19.0528 5.45824C19.402 5.90596 19.6446 6.42611 19.7625 6.97984C19.8804 7.53357 19.8706 8.10656 19.7337 8.656Z"
    stroke="white" fill="currentColor" stroke-width="1.5" stroke-linecap="round" stroke-linejoin="round"/>
</svg>
