<svg width="32" height="32" viewBox="0 0 32 32" xmlns="http://www.w3.org/2000/svg">
<path d="M16.3776 4C17.7424 4.04837 18.7013 4.5241 19.2543 5.42719C19.9664 4.95204 20.8039 4.78469 21.7668 4.92503C22.8471 5.14529 23.5389 5.64745 23.8424 6.43151C25.2187 6.11742 26.3355 6.38172 27.1924 7.22439C27.5225 7.65403 27.6439 8.11211 27.5565 8.59873C27.0949 10.4947 26.6215 12.3888 26.1364 14.2811C26.7498 16.2956 27.3445 18.313 27.9207 20.3334C28.3157 22.8044 27.2354 24.8571 24.6799 26.4915C22.0793 27.9402 19.1905 28.3454 16.0135 27.7072C14.7989 27.4165 13.7065 26.976 12.7363 26.3858C10.0756 24.3313 7.44174 22.261 4.83462 20.1748C3.70981 19.189 3.7219 18.2111 4.87103 17.2412C5.94683 16.6572 7.0878 16.5868 8.29388 17.0297C8.54623 17.1599 8.7768 17.3097 8.98574 17.479C9.67621 18.1563 10.4651 18.7642 11.3526 19.3027C13.3477 20.0139 15.0348 19.7408 16.4141 18.4833C17.422 17.1196 17.1428 15.9127 15.5766 14.8625C13.9219 14.0824 12.3197 14.1353 10.77 15.0211C10.4088 15.4066 9.97188 15.7413 9.45911 16.0254C7.77878 16.6041 6.48006 16.3133 5.56288 15.1532C5.32285 14.6254 5.32285 14.0968 5.56288 13.5675C7.89625 10.911 11.2099 9.88024 15.5037 10.4752C16.2026 10.6324 16.8823 10.8086 17.5429 11.0038C16.4292 9.73086 15.3247 8.45342 14.2293 7.17154C13.3731 5.97835 13.7008 5.00046 15.2124 4.23787C15.5972 4.12422 15.9855 4.04493 16.3776 4Z" 
    stroke="white" fill="currentColor" stroke-width="1.5"/>
</svg>
