<svg width="32" height="32" viewBox="0 0 32 32" fill="none" xmlns="http://www.w3.org/2000/svg">
<g opacity="0.8">
<path d="M28 4V11.2M28 11.2H20M28 11.2L24 7.96C22.2741 6.57065 20.1384 5.6604 17.8505 5.33902C15.5626 5.01765 13.2203 5.29889 11.106 6.14883C8.99175 6.99876 7.19588 8.38107 5.93501 10.129C4.67413 11.877 4.00211 13.916 4 16M4 28V20.8M4 20.8H12M4 20.8L8 24.04C9.72593 25.4294 11.8616 26.3396 14.1495 26.661C16.4374 26.9823 18.7797 26.7011 20.894 25.8512C23.0082 25.0012 24.8041 23.6189 26.065 21.871C27.3259 20.123 27.9979 18.084 28 16" stroke="white" stroke-width="1.5" stroke-linecap="round" stroke-linejoin="round"/>
</g>
</svg>
