<svg width="32" height="32" viewBox="0 0 32 32" fill="none" xmlns="http://www.w3.org/2000/svg">
<path d="M11.4533 18.3467L20.56 23.6533M20.5467 9.01333L11.4533 14.32M28 7C28 9.20914 26.2091 11 24 11C21.7909 11 20 9.20914 20 7C20 4.79086 21.7909 3 24 3C26.2091 3 28 4.79086 28 7ZM12 16.3333C12 18.5425 10.2091 20.3333 8 20.3333C5.79086 20.3333 4 18.5425 4 16.3333C4 14.1242 5.79086 12.3333 8 12.3333C10.2091 12.3333 12 14.1242 12 16.3333ZM28 25.6667C28 27.8758 26.2091 29.6667 24 29.6667C21.7909 29.6667 20 27.8758 20 25.6667C20 23.4575 21.7909 21.6667 24 21.6667C26.2091 21.6667 28 23.4575 28 25.6667Z"
    stroke="white" stroke-width="2" stroke-linecap="round" stroke-linejoin="round" />
</svg>