<svg width="32" height="32" viewBox="0 0 32 32" fill="none" xmlns="http://www.w3.org/2000/svg">
	<path d="M26.6981 5.69422C26.6981 5.69422 29.1958 4.74193 28.9877 7.05464C28.9183 8.00692 28.2939 11.3399 27.8082 14.945L26.1431 25.6243C26.1431 25.6243 26.0043 27.1887 24.7555 27.4608C23.5066 27.7329 21.6333 26.5085 21.2864 26.2364C21.0089 26.0324 16.0829 22.9715 14.3484 21.475C13.8627 21.0669 13.3077 20.2506 14.4178 19.2983L21.7027 12.4963C22.5353 11.68 23.3679 9.77546 19.8988 12.0882L10.1856 18.5501C10.1856 18.5501 9.07548 19.2303 6.99407 18.6181L2.48434 17.2577C2.48434 17.2577 0.81921 16.2374 3.66381 15.2171C10.6019 12.0201 19.1357 8.75515 26.6981 5.69422Z"
		stroke="white" stroke-width="2" />
</svg>