<svg width="32" height="32" viewBox="0 0 32 32" fill="none" xmlns="http://www.w3.org/2000/svg">
<path d="M9.10345 20.1233H22.8965M8.92893 19.9541C7.53041 18.5652 6.578 16.7956 6.19215 14.869C5.8063 12.9425 6.00433 10.9456 6.76121 9.13088C7.51809 7.31614 8.79981 5.76505 10.4443 4.67376C12.0888 3.58247 14.0222 3 16 3C17.9778 3 19.9112 3.58247 21.5557 4.67376C23.2002 5.76505 24.4819 7.31614 25.2388 9.13088C25.9957 10.9456 26.1937 12.9425 25.8078 14.869C25.422 16.7956 24.4696 18.5652 23.0711 19.9541M11.5172 23.5479H20.4828M17.3793 26.8258C17.3793 27.4743 16.7618 28 16 28C15.2382 28 14.6207 27.4743 14.6207 26.8258M14.6207 26.6301H17.3793"
    stroke="white" stroke-width="2" stroke-linecap="round" />
</svg>