<svg width="32" height="32" viewBox="0 0 32 32" fill="none" xmlns="http://www.w3.org/2000/svg">
<path d="M12.0002 18.6666L5.3335 11.9999M5.3335 11.9999L12.0002 5.33325M5.3335 11.9999H19.3335C20.2965 11.9999 21.2501 12.1896 22.1398 12.5581C23.0296 12.9267 23.838 13.4668 24.5189 14.1478C25.1999 14.8288 25.7401 15.6372 26.1086 16.5269C26.4771 17.4166 26.6668 18.3702 26.6668 19.3333C26.6668 20.2963 26.4771 21.2499 26.1086 22.1396C25.7401 23.0293 25.1999 23.8377 24.5189 24.5187C23.838 25.1997 23.0296 25.7398 22.1398 26.1084C21.2501 26.4769 20.2965 26.6666 19.3335 26.6666H14.6668"
    stroke="white" stroke-width="2" stroke-linecap="round" stroke-linejoin="round" />
</svg>