<svg width="32" height="32" viewBox="0 0 32 32" fill="none" xmlns="http://www.w3.org/2000/svg">
	<path d="M22.3035 18.1874C22.2492 18.1632 20.2173 17.2331 19.8563 17.1123C19.7088 17.0631 19.5509 17.015 19.383 17.015C19.1086 17.015 18.8781 17.1421 18.6986 17.3918C18.4956 17.6723 17.8812 18.3399 17.6913 18.5393C17.6665 18.5657 17.6327 18.5971 17.6124 18.5971C17.5942 18.5971 17.2798 18.4767 17.1846 18.4383C15.0049 17.5582 13.3505 15.4417 13.1236 15.0848C13.0912 15.0335 13.0899 15.0102 13.0896 15.0102C13.0975 14.983 13.1708 14.9147 13.2087 14.8795C13.3193 14.7777 13.4392 14.6435 13.5552 14.5137C13.6102 14.4522 13.6652 14.3907 13.7192 14.3326C13.8875 14.1506 13.9625 14.0093 14.0493 13.8456L14.0948 13.7605C14.307 13.3688 14.1258 13.0382 14.0672 12.9315C14.0192 12.8422 13.1612 10.9174 13.07 10.7152C12.8507 10.2272 12.5608 10 12.1581 10C12.1207 10 12.1581 10 12.0013 10.0061C11.8105 10.0136 10.7712 10.1408 10.3117 10.4101C9.82438 10.6956 9 11.606 9 13.2069C9 14.6477 9.98364 16.0082 10.406 16.5256C10.4165 16.5386 10.4357 16.5651 10.4637 16.6031C12.0811 18.7987 14.0973 20.4259 16.1412 21.1849C18.109 21.9155 19.0407 22 19.5705 22C19.7931 22 19.9714 21.9838 20.1285 21.9694L20.2283 21.9605C20.908 21.9045 22.4019 21.185 22.7417 20.3072C23.0093 19.6159 23.0799 18.8605 22.9018 18.5864C22.7799 18.3999 22.5696 18.3062 22.3035 18.1874Z"
		stroke="white" stroke-width="1.5" />
	<path d="M16.2485 2C8.66526 2 2.4958 8.12309 2.4958 15.6494C2.4958 18.0836 3.14725 20.4665 4.38134 22.5519L2.01925 29.5196C1.97525 29.6495 2.00798 29.7932 2.10407 29.891C2.17343 29.9618 2.26752 30 2.36362 30C2.40043 30 2.43752 29.9945 2.47371 29.9829L9.73917 27.6742C11.7274 28.7365 13.9744 29.2972 16.2486 29.2972C23.8312 29.2973 30 23.1748 30 15.6494C30 8.12309 23.8312 2 16.2485 2ZM16.2485 26.454C14.1086 26.454 12.036 25.8361 10.2543 24.667C10.1944 24.6276 10.1249 24.6075 10.0549 24.6075C10.0179 24.6075 9.9808 24.6131 9.94471 24.6245L6.30516 25.7815L7.48007 22.3152C7.51807 22.203 7.49907 22.0793 7.42907 21.9836C6.07235 20.1298 5.35516 17.9395 5.35516 15.6494C5.35516 9.69091 10.2419 4.84327 16.2484 4.84327C22.2543 4.84327 27.1405 9.69091 27.1405 15.6494C27.1405 21.6071 22.2544 26.454 16.2485 26.454Z"
		stroke="white" stroke-width="1.5" />
</svg>