<svg width="32" height="32" viewBox="0 0 32 32" xmlns="http://www.w3.org/2000/svg">
<path d="M21.9486 18.4V4M12.2663 23.344L13.4766 18.4H6.42058C6.04479 18.4 5.67417 18.3133 5.33806 18.1466C5.00195 17.98 4.70958 17.7381 4.48411 17.44C4.25865 17.1419 4.10627 16.7959 4.03904 16.4293C3.97182 16.0627 3.9916 15.6857 4.09682 15.328L6.91679 5.728C7.06344 5.22948 7.36921 4.79157 7.7882 4.48C8.20719 4.16843 8.7168 4 9.24054 4H25.5794C26.2214 4 26.8371 4.25286 27.291 4.70294C27.745 5.15303 28 5.76348 28 6.4V16C28 16.6365 27.745 17.247 27.291 17.6971C26.8371 18.1471 26.2214 18.4 25.5794 18.4H22.239C21.7887 18.4002 21.3474 18.525 20.9647 18.7603C20.5819 18.9956 20.273 19.3321 20.0726 19.732L15.8971 28C15.3264 27.993 14.7646 27.8582 14.2538 27.6057C13.743 27.3532 13.2963 26.9895 12.9472 26.5418C12.598 26.094 12.3554 25.5739 12.2375 25.0202C12.1196 24.4664 12.1294 23.8934 12.2663 23.344Z"
    stroke="white" fill="currentColor" stroke-width="1.5" stroke-linecap="round" stroke-linejoin="round"/>
</svg>
